<?xml version="1.0" encoding="UTF-8" standalone="no"?>
<svg width="456" height="456" viewBox="0 0 456 456" version="1.1" xmlns="http://www.w3.org/2000/svg">
  <defs>
    <linearGradient id="scoreboardBody" x1="0%" y1="0%" x2="0%" y2="100%">
      <stop offset="0%" stop-color="#102744" />
      <stop offset="100%" stop-color="#1a3a66" />
    </linearGradient>
    <linearGradient id="scoreDigits" x1="0%" y1="0%" x2="100%" y2="0%">
      <stop offset="0%" stop-color="#9df3ff" />
      <stop offset="100%" stop-color="#5fe1ff" />
    </linearGradient>
    <linearGradient id="lensRing" x1="0%" y1="0%" x2="100%" y2="100%">
      <stop offset="0%" stop-color="#ffdd6f" />
      <stop offset="100%" stop-color="#ff8a3d" />
    </linearGradient>
  </defs>
  <g transform="translate(76 104)">
    <rect x="0" y="0" width="304" height="248" rx="36" fill="url(#scoreboardBody)" stroke="#3b74f2" stroke-width="8" />
    <g transform="translate(28 36)">
      <rect x="0" y="0" width="248" height="176" rx="24" fill="#0d1c33" stroke="#1f4fbf" stroke-width="4" />
      <line x1="124" y1="16" x2="124" y2="160" stroke="#1f4fbf" stroke-width="3" stroke-dasharray="8 12" opacity="0.65" />
      <g transform="translate(24 20)" fill="url(#scoreDigits)">
        <path d="M38 0h-32c-6.6 0-12 5.4-12 12v40c0 6.6 5.4 12 12 12h20c6.6 0 12 5.4 12 12v36c0 6.6-5.4 12-12 12h-32" stroke="#9df3ff" stroke-width="6" stroke-linecap="round" stroke-linejoin="round" fill="none" />
        <path d="M94 0h-36v112h36c6.6 0 12-5.4 12-12V12c0-6.6-5.4-12-12-12z" stroke="#9df3ff" stroke-width="6" stroke-linecap="round" stroke-linejoin="round" fill="none" />
      </g>
      <g transform="translate(148 20)" fill="url(#scoreDigits)">
        <path d="M12 0h44c6.6 0 12 5.4 12 12v40c0 6.6-5.4 12-12 12H12c-6.6 0-12-5.4-12-12V12C0 5.4 5.4 0 12 0z" stroke="#9df3ff" stroke-width="6" stroke-linecap="round" stroke-linejoin="round" fill="none" />
        <path d="M0 112h68" stroke="#9df3ff" stroke-width="6" stroke-linecap="round" stroke-linejoin="round" />
        <path d="M12 56h44c6.6 0 12 5.4 12 12v32c0 6.6-5.4 12-12 12H12c-6.6 0-12-5.4-12-12V68c0-6.6 5.4-12 12-12z" stroke="#9df3ff" stroke-width="6" stroke-linecap="round" stroke-linejoin="round" fill="none" />
      </g>
      <circle cx="124" cy="88" r="18" fill="#1f4fbf" opacity="0.55" />
    </g>
    <g transform="translate(212 160)">
      <circle cx="80" cy="80" r="64" fill="rgba(15,34,60,0.9)" stroke="url(#lensRing)" stroke-width="10" />
      <circle cx="80" cy="80" r="36" fill="none" stroke="#8fffd2" stroke-width="6" />
      <line x1="80" y1="34" x2="80" y2="126" stroke="#8fffd2" stroke-width="6" stroke-linecap="round" opacity="0.85" />
      <line x1="34" y1="80" x2="126" y2="80" stroke="#8fffd2" stroke-width="6" stroke-linecap="round" opacity="0.85" />
      <circle cx="80" cy="80" r="12" fill="#8fffd2" opacity="0.65" />
    </g>
  </g>
</svg>
